<svg id="visual" viewBox="0 0 960 540" width="960" height="540" xmlns="http://www.w3.org/2000/svg" xmlns:xlink="http://www.w3.org/1999/xlink" version="1.1"><g stroke-width="1" stroke-linejoin="bevel"><path d="M495.3 243L403.7 196L448.7 252Z" fill="#297ea6" stroke="#297ea6"></path><path d="M495.3 243L525.3 125L403.7 196Z" fill="#1d4e6b" stroke="#1d4e6b"></path><path d="M495.3 243L560.3 165L525.3 125Z" fill="#00101c" stroke="#00101c"></path><path d="M525.3 125L402.7 81L403.7 196Z" fill="#00101c" stroke="#00101c"></path><path d="M312 249L418.7 324L448.7 252Z" fill="#0c2435" stroke="#0c2435"></path><path d="M448.7 252L418.7 324L495.3 243Z" fill="#0c2435" stroke="#0c2435"></path><path d="M336 78L316 217L403.7 196Z" fill="#205a7a" stroke="#205a7a"></path><path d="M403.7 196L312 249L448.7 252Z" fill="#112e42" stroke="#112e42"></path><path d="M316 217L312 249L403.7 196Z" fill="#15384f" stroke="#15384f"></path><path d="M402.7 81L336 78L403.7 196Z" fill="#297ea6" stroke="#297ea6"></path><path d="M620 340L640 215L495.3 243Z" fill="#15384f" stroke="#15384f"></path><path d="M495.3 243L640 215L560.3 165Z" fill="#277297" stroke="#277297"></path><path d="M634 0L496.3 0L525.3 125Z" fill="#277297" stroke="#277297"></path><path d="M496.3 0L464.7 0L525.3 125Z" fill="#081a28" stroke="#081a28"></path><path d="M525.3 125L464.7 0L402.7 81Z" fill="#15384f" stroke="#15384f"></path><path d="M402.7 81L286 0L336 78Z" fill="#00101c" stroke="#00101c"></path><path d="M678 80L525.3 125L560.3 165Z" fill="#277297" stroke="#277297"></path><path d="M418.7 324L549.3 381L495.3 243Z" fill="#00101c" stroke="#00101c"></path><path d="M312 249L303 337L418.7 324Z" fill="#00101c" stroke="#00101c"></path><path d="M436.7 459L555.3 441L549.3 381Z" fill="#0c2435" stroke="#0c2435"></path><path d="M549.3 381L620 340L495.3 243Z" fill="#081a28" stroke="#081a28"></path><path d="M286 0L245.3 108L336 78Z" fill="#246688" stroke="#246688"></path><path d="M336 78L245.3 108L316 217Z" fill="#246688" stroke="#246688"></path><path d="M316 217L216.3 172L312 249Z" fill="#1d4e6b" stroke="#1d4e6b"></path><path d="M312 249L190.3 290L303 337Z" fill="#112e42" stroke="#112e42"></path><path d="M620 340L679 290L640 215Z" fill="#081a28" stroke="#081a28"></path><path d="M717.7 123L678 80L640 215Z" fill="#0c2435" stroke="#0c2435"></path><path d="M640 215L678 80L560.3 165Z" fill="#19435d" stroke="#19435d"></path><path d="M245.3 108L216.3 172L316 217Z" fill="#297ea6" stroke="#297ea6"></path><path d="M712.7 291L717.7 173L640 215Z" fill="#081a28" stroke="#081a28"></path><path d="M678 80L634 0L525.3 125Z" fill="#15384f" stroke="#15384f"></path><path d="M464.7 0L286 0L402.7 81Z" fill="#277297" stroke="#277297"></path><path d="M140.7 79L140.7 163L216.3 172Z" fill="#15384f" stroke="#15384f"></path><path d="M436.7 459L549.3 381L418.7 324Z" fill="#297ea6" stroke="#297ea6"></path><path d="M549.3 381L555.3 441L620 340Z" fill="#112e42" stroke="#112e42"></path><path d="M677 410L712.7 291L679 290Z" fill="#246688" stroke="#246688"></path><path d="M299 425L436.7 459L418.7 324Z" fill="#081a28" stroke="#081a28"></path><path d="M717.7 173L717.7 123L640 215Z" fill="#297ea6" stroke="#297ea6"></path><path d="M678 80L767.7 0L634 0Z" fill="#081a28" stroke="#081a28"></path><path d="M677 410L679 290L620 340Z" fill="#15384f" stroke="#15384f"></path><path d="M679 290L712.7 291L640 215Z" fill="#19435d" stroke="#19435d"></path><path d="M194.3 392L299 425L303 337Z" fill="#112e42" stroke="#112e42"></path><path d="M303 337L299 425L418.7 324Z" fill="#277297" stroke="#277297"></path><path d="M216.3 172L190.3 290L312 249Z" fill="#112e42" stroke="#112e42"></path><path d="M555.3 441L677 410L620 340Z" fill="#246688" stroke="#246688"></path><path d="M140.7 79L216.3 172L245.3 108Z" fill="#00101c" stroke="#00101c"></path><path d="M216.3 172L140.7 163L190.3 290Z" fill="#205a7a" stroke="#205a7a"></path><path d="M286 0L195.3 0L245.3 108Z" fill="#0c2435" stroke="#0c2435"></path><path d="M97.7 336L194.3 392L190.3 290Z" fill="#1d4e6b" stroke="#1d4e6b"></path><path d="M190.3 290L194.3 392L303 337Z" fill="#277297" stroke="#277297"></path><path d="M677 410L770.7 336L712.7 291Z" fill="#112e42" stroke="#112e42"></path><path d="M712.7 291L842.3 276L717.7 173Z" fill="#246688" stroke="#246688"></path><path d="M846.3 72L767.7 0L717.7 123Z" fill="#112e42" stroke="#112e42"></path><path d="M195.3 0L140.7 79L245.3 108Z" fill="#081a28" stroke="#081a28"></path><path d="M282 540L408.7 540L299 425Z" fill="#19435d" stroke="#19435d"></path><path d="M299 425L408.7 540L436.7 459Z" fill="#246688" stroke="#246688"></path><path d="M436.7 459L565.3 540L555.3 441Z" fill="#15384f" stroke="#15384f"></path><path d="M679 540L716.7 444L677 410Z" fill="#246688" stroke="#246688"></path><path d="M679 540L677 410L555.3 441Z" fill="#081a28" stroke="#081a28"></path><path d="M677 410L716.7 444L770.7 336Z" fill="#112e42" stroke="#112e42"></path><path d="M408.7 540L565.3 540L436.7 459Z" fill="#0c2435" stroke="#0c2435"></path><path d="M859.3 179L717.7 123L717.7 173Z" fill="#205a7a" stroke="#205a7a"></path><path d="M717.7 123L767.7 0L678 80Z" fill="#19435d" stroke="#19435d"></path><path d="M140.7 163L97.7 297L190.3 290Z" fill="#112e42" stroke="#112e42"></path><path d="M0 216L97.7 297L140.7 163Z" fill="#112e42" stroke="#112e42"></path><path d="M185.3 484L282 540L299 425Z" fill="#15384f" stroke="#15384f"></path><path d="M185.3 484L299 425L194.3 392Z" fill="#19435d" stroke="#19435d"></path><path d="M863.3 376L842.3 276L770.7 336Z" fill="#19435d" stroke="#19435d"></path><path d="M770.7 336L842.3 276L712.7 291Z" fill="#081a28" stroke="#081a28"></path><path d="M97.7 297L97.7 336L190.3 290Z" fill="#19435d" stroke="#19435d"></path><path d="M842.3 276L859.3 179L717.7 173Z" fill="#205a7a" stroke="#205a7a"></path><path d="M101.7 479L185.3 484L194.3 392Z" fill="#205a7a" stroke="#205a7a"></path><path d="M195.3 0L108.7 0L140.7 79Z" fill="#0c2435" stroke="#0c2435"></path><path d="M0 89L0 216L140.7 163Z" fill="#297ea6" stroke="#297ea6"></path><path d="M859.3 179L846.3 72L717.7 123Z" fill="#00101c" stroke="#00101c"></path><path d="M565.3 540L679 540L555.3 441Z" fill="#277297" stroke="#277297"></path><path d="M863.3 427L863.3 376L770.7 336Z" fill="#1d4e6b" stroke="#1d4e6b"></path><path d="M846.3 72L820.3 0L767.7 0Z" fill="#297ea6" stroke="#297ea6"></path><path d="M107.7 540L189.3 540L185.3 484Z" fill="#277297" stroke="#277297"></path><path d="M185.3 484L189.3 540L282 540Z" fill="#246688" stroke="#246688"></path><path d="M863.3 427L770.7 336L716.7 444Z" fill="#15384f" stroke="#15384f"></path><path d="M960 248L960 200L859.3 179Z" fill="#1d4e6b" stroke="#1d4e6b"></path><path d="M97.7 336L101.7 479L194.3 392Z" fill="#112e42" stroke="#112e42"></path><path d="M97.7 297L0 352L97.7 336Z" fill="#112e42" stroke="#112e42"></path><path d="M97.7 336L0 446L101.7 479Z" fill="#277297" stroke="#277297"></path><path d="M0 89L140.7 163L140.7 79Z" fill="#00101c" stroke="#00101c"></path><path d="M773.7 540L863.3 427L716.7 444Z" fill="#19435d" stroke="#19435d"></path><path d="M0 216L0 237L97.7 297Z" fill="#19435d" stroke="#19435d"></path><path d="M679 540L773.7 540L716.7 444Z" fill="#0c2435" stroke="#0c2435"></path><path d="M108.7 0L0 89L140.7 79Z" fill="#15384f" stroke="#15384f"></path><path d="M0 237L0 352L97.7 297Z" fill="#081a28" stroke="#081a28"></path><path d="M101.7 479L107.7 540L185.3 484Z" fill="#277297" stroke="#277297"></path><path d="M0 540L107.7 540L101.7 479Z" fill="#1d4e6b" stroke="#1d4e6b"></path><path d="M960 248L859.3 179L842.3 276Z" fill="#00101c" stroke="#00101c"></path><path d="M859.3 179L960 84L846.3 72Z" fill="#205a7a" stroke="#205a7a"></path><path d="M846.3 72L960 0L820.3 0Z" fill="#15384f" stroke="#15384f"></path><path d="M960 248L842.3 276L960 368Z" fill="#19435d" stroke="#19435d"></path><path d="M960 368L842.3 276L863.3 376Z" fill="#0c2435" stroke="#0c2435"></path><path d="M108.7 0L0 0L0 89Z" fill="#19435d" stroke="#19435d"></path><path d="M960 200L960 84L859.3 179Z" fill="#205a7a" stroke="#205a7a"></path><path d="M0 352L0 446L97.7 336Z" fill="#112e42" stroke="#112e42"></path><path d="M960 476L960 368L863.3 427Z" fill="#19435d" stroke="#19435d"></path><path d="M863.3 427L960 368L863.3 376Z" fill="#0c2435" stroke="#0c2435"></path><path d="M960 84L960 0L846.3 72Z" fill="#277297" stroke="#277297"></path><path d="M773.7 540L891.3 540L863.3 427Z" fill="#081a28" stroke="#081a28"></path><path d="M891.3 540L960 476L863.3 427Z" fill="#19435d" stroke="#19435d"></path><path d="M0 446L0 540L101.7 479Z" fill="#00101c" stroke="#00101c"></path><path d="M891.3 540L960 540L960 476Z" fill="#00101c" stroke="#00101c"></path></g></svg>