<svg id="visual" viewBox="0 0 960 540" width="960" height="540" xmlns="http://www.w3.org/2000/svg" xmlns:xlink="http://www.w3.org/1999/xlink" version="1.1"><g stroke-width="1" stroke-linejoin="bevel"><path d="M452.7 258L321 280L427.7 336Z" fill="#001634" stroke="#001634"></path><path d="M452.7 258L409.7 177L321 280Z" fill="#001634" stroke="#001634"></path><path d="M321 280L294 369L427.7 336Z" fill="#297ea6" stroke="#297ea6"></path><path d="M409.7 177L291 178L321 280Z" fill="#001634" stroke="#001634"></path><path d="M321 280L199.3 331L294 369Z" fill="#000000" stroke="#000000"></path><path d="M421.7 441L509.3 386L427.7 336Z" fill="#217199" stroke="#217199"></path><path d="M427.7 336L551.3 274L452.7 258Z" fill="#004266" stroke="#004266"></path><path d="M294 369L314 425L427.7 336Z" fill="#002b4d" stroke="#002b4d"></path><path d="M509.3 386L551.3 274L427.7 336Z" fill="#084d73" stroke="#084d73"></path><path d="M452.7 258L527.3 170L409.7 177Z" fill="#004266" stroke="#004266"></path><path d="M314 425L421.7 441L427.7 336Z" fill="#003659" stroke="#003659"></path><path d="M551.3 274L527.3 170L452.7 258Z" fill="#000000" stroke="#000000"></path><path d="M409.7 177L315 103L291 178Z" fill="#084d73" stroke="#084d73"></path><path d="M432.7 86L315 103L409.7 177Z" fill="#002040" stroke="#002040"></path><path d="M209.3 187L321 280L291 178Z" fill="#217199" stroke="#217199"></path><path d="M209.3 187L196.3 296L321 280Z" fill="#001634" stroke="#001634"></path><path d="M294 369L196.3 444L314 425Z" fill="#002b4d" stroke="#002b4d"></path><path d="M196.3 296L199.3 331L321 280Z" fill="#084d73" stroke="#084d73"></path><path d="M527.3 170L432.7 86L409.7 177Z" fill="#000000" stroke="#000000"></path><path d="M205.3 87L209.3 187L291 178Z" fill="#12597f" stroke="#12597f"></path><path d="M421.7 441L550.3 422L509.3 386Z" fill="#000000" stroke="#000000"></path><path d="M509.3 386L617 366L551.3 274Z" fill="#084d73" stroke="#084d73"></path><path d="M617 366L627 272L551.3 274Z" fill="#1a658c" stroke="#1a658c"></path><path d="M551.3 274L627 272L527.3 170Z" fill="#217199" stroke="#217199"></path><path d="M550.3 422L617 366L509.3 386Z" fill="#002b4d" stroke="#002b4d"></path><path d="M199.3 331L196.3 444L294 369Z" fill="#004266" stroke="#004266"></path><path d="M334 540L397.7 540L421.7 441Z" fill="#003659" stroke="#003659"></path><path d="M93.7 356L196.3 444L199.3 331Z" fill="#001634" stroke="#001634"></path><path d="M639 111L550.3 86L527.3 170Z" fill="#003659" stroke="#003659"></path><path d="M527.3 170L550.3 86L432.7 86Z" fill="#002b4d" stroke="#002b4d"></path><path d="M334 540L421.7 441L314 425Z" fill="#217199" stroke="#217199"></path><path d="M421.7 441L516.3 540L550.3 422Z" fill="#000000" stroke="#000000"></path><path d="M227.3 540L334 540L314 425Z" fill="#003659" stroke="#003659"></path><path d="M308 0L205.3 87L315 103Z" fill="#217199" stroke="#217199"></path><path d="M315 103L205.3 87L291 178Z" fill="#000000" stroke="#000000"></path><path d="M209.3 187L123.7 240L196.3 296Z" fill="#002b4d" stroke="#002b4d"></path><path d="M97.7 181L123.7 240L209.3 187Z" fill="#217199" stroke="#217199"></path><path d="M196.3 296L93.7 356L199.3 331Z" fill="#004266" stroke="#004266"></path><path d="M509.3 0L416.7 0L432.7 86Z" fill="#000000" stroke="#000000"></path><path d="M432.7 86L416.7 0L315 103Z" fill="#003659" stroke="#003659"></path><path d="M617 540L636 425L550.3 422Z" fill="#002b4d" stroke="#002b4d"></path><path d="M550.3 422L636 425L617 366Z" fill="#297ea6" stroke="#297ea6"></path><path d="M617 366L731.7 286L627 272Z" fill="#003659" stroke="#003659"></path><path d="M397.7 540L516.3 540L421.7 441Z" fill="#004266" stroke="#004266"></path><path d="M416.7 0L308 0L315 103Z" fill="#12597f" stroke="#12597f"></path><path d="M627 272L668 170L527.3 170Z" fill="#297ea6" stroke="#297ea6"></path><path d="M731.7 286L668 170L627 272Z" fill="#004266" stroke="#004266"></path><path d="M668 170L639 111L527.3 170Z" fill="#004266" stroke="#004266"></path><path d="M550.3 86L509.3 0L432.7 86Z" fill="#12597f" stroke="#12597f"></path><path d="M123.7 240L93.7 356L196.3 296Z" fill="#000000" stroke="#000000"></path><path d="M629 0L509.3 0L550.3 86Z" fill="#004266" stroke="#004266"></path><path d="M126.7 540L227.3 540L196.3 444Z" fill="#003659" stroke="#003659"></path><path d="M196.3 444L227.3 540L314 425Z" fill="#000000" stroke="#000000"></path><path d="M205.3 87L97.7 181L209.3 187Z" fill="#1a658c" stroke="#1a658c"></path><path d="M123.7 240L0 249L93.7 356Z" fill="#002040" stroke="#002040"></path><path d="M93.7 356L101.7 443L196.3 444Z" fill="#001634" stroke="#001634"></path><path d="M308 0L214.3 0L205.3 87Z" fill="#297ea6" stroke="#297ea6"></path><path d="M205.3 87L110.7 67L97.7 181Z" fill="#297ea6" stroke="#297ea6"></path><path d="M723.7 381L731.7 286L617 366Z" fill="#084d73" stroke="#084d73"></path><path d="M668 170L729.7 112L639 111Z" fill="#000000" stroke="#000000"></path><path d="M516.3 540L617 540L550.3 422Z" fill="#084d73" stroke="#084d73"></path><path d="M636 425L723.7 381L617 366Z" fill="#001634" stroke="#001634"></path><path d="M744.7 464L723.7 381L636 425Z" fill="#003659" stroke="#003659"></path><path d="M130.7 0L110.7 67L205.3 87Z" fill="#084d73" stroke="#084d73"></path><path d="M101.7 443L126.7 540L196.3 444Z" fill="#217199" stroke="#217199"></path><path d="M857.3 254L745.7 187L731.7 286Z" fill="#084d73" stroke="#084d73"></path><path d="M731.7 286L745.7 187L668 170Z" fill="#217199" stroke="#217199"></path><path d="M639 111L629 0L550.3 86Z" fill="#003659" stroke="#003659"></path><path d="M729.7 112L629 0L639 111Z" fill="#084d73" stroke="#084d73"></path><path d="M745.7 187L729.7 112L668 170Z" fill="#12597f" stroke="#12597f"></path><path d="M214.3 0L130.7 0L205.3 87Z" fill="#084d73" stroke="#084d73"></path><path d="M0 185L97.7 181L0 64Z" fill="#084d73" stroke="#084d73"></path><path d="M0 185L0 249L97.7 181Z" fill="#217199" stroke="#217199"></path><path d="M97.7 181L0 249L123.7 240Z" fill="#297ea6" stroke="#297ea6"></path><path d="M93.7 356L0 442L101.7 443Z" fill="#002040" stroke="#002040"></path><path d="M101.7 443L0 540L126.7 540Z" fill="#002b4d" stroke="#002b4d"></path><path d="M0 249L0 338L93.7 356Z" fill="#001634" stroke="#001634"></path><path d="M0 64L97.7 181L110.7 67Z" fill="#1a658c" stroke="#1a658c"></path><path d="M617 540L744.7 464L636 425Z" fill="#297ea6" stroke="#297ea6"></path><path d="M873.3 364L857.3 254L731.7 286Z" fill="#084d73" stroke="#084d73"></path><path d="M0 338L0 442L93.7 356Z" fill="#003659" stroke="#003659"></path><path d="M617 540L737.7 540L744.7 464Z" fill="#001634" stroke="#001634"></path><path d="M0 0L0 64L110.7 67Z" fill="#000000" stroke="#000000"></path><path d="M848.3 105L755.7 0L729.7 112Z" fill="#002b4d" stroke="#002b4d"></path><path d="M729.7 112L755.7 0L629 0Z" fill="#000000" stroke="#000000"></path><path d="M848.3 105L729.7 112L745.7 187Z" fill="#002040" stroke="#002040"></path><path d="M0 442L0 540L101.7 443Z" fill="#000000" stroke="#000000"></path><path d="M827.3 450L723.7 381L744.7 464Z" fill="#217199" stroke="#217199"></path><path d="M873.3 364L731.7 286L723.7 381Z" fill="#12597f" stroke="#12597f"></path><path d="M737.7 540L827.3 450L744.7 464Z" fill="#002b4d" stroke="#002b4d"></path><path d="M130.7 0L0 0L110.7 67Z" fill="#297ea6" stroke="#297ea6"></path><path d="M857.3 254L860.3 158L745.7 187Z" fill="#003659" stroke="#003659"></path><path d="M827.3 450L873.3 364L723.7 381Z" fill="#12597f" stroke="#12597f"></path><path d="M857.3 254L960 176L860.3 158Z" fill="#000000" stroke="#000000"></path><path d="M860.3 158L848.3 105L745.7 187Z" fill="#000000" stroke="#000000"></path><path d="M737.7 540L881.3 540L827.3 450Z" fill="#002b4d" stroke="#002b4d"></path><path d="M960 446L960 353L873.3 364Z" fill="#12597f" stroke="#12597f"></path><path d="M960 92L879.3 0L848.3 105Z" fill="#002b4d" stroke="#002b4d"></path><path d="M848.3 105L879.3 0L755.7 0Z" fill="#003659" stroke="#003659"></path><path d="M960 92L848.3 105L860.3 158Z" fill="#001634" stroke="#001634"></path><path d="M960 297L857.3 254L873.3 364Z" fill="#002b4d" stroke="#002b4d"></path><path d="M960 353L960 297L873.3 364Z" fill="#002040" stroke="#002040"></path><path d="M960 446L873.3 364L827.3 450Z" fill="#12597f" stroke="#12597f"></path><path d="M960 297L960 176L857.3 254Z" fill="#12597f" stroke="#12597f"></path><path d="M881.3 540L960 446L827.3 450Z" fill="#217199" stroke="#217199"></path><path d="M960 176L960 92L860.3 158Z" fill="#12597f" stroke="#12597f"></path><path d="M881.3 540L960 540L960 446Z" fill="#12597f" stroke="#12597f"></path><path d="M960 92L960 0L879.3 0Z" fill="#297ea6" stroke="#297ea6"></path></g></svg>